<?xml version="1.0" standalone="no"?>
<!DOCTYPE svg PUBLIC "-//W3C//DTD SVG 20010904//EN"
 "http://www.w3.org/TR/2001/REC-SVG-20010904/DTD/svg10.dtd">
<svg version="1.0" xmlns="http://www.w3.org/2000/svg"
 width="511.000000pt" height="438.000000pt" viewBox="0 0 511.000000 438.000000"
 preserveAspectRatio="xMidYMid meet">

<g transform="translate(0.000000,438.000000) scale(0.100000,-0.100000)"
fill="#111" stroke="none">
<path d="M2310 4370 c-8 -5 -73 -17 -145 -28 -71 -11 -146 -25 -165 -31 -19
-5 -55 -15 -80 -22 -25 -6 -52 -15 -60 -20 -8 -5 -46 -25 -84 -45 -144 -75
-251 -167 -342 -294 -53 -76 -64 -96 -64 -122 0 -13 -11 -45 -23 -73 -38 -80
-51 -186 -44 -353 4 -102 12 -169 26 -217 10 -38 25 -99 31 -135 6 -36 27
-110 46 -165 47 -139 44 -185 -13 -185 -36 0 -73 23 -124 77 -52 54 -77 97
-111 193 -23 64 -23 73 -23 450 0 423 1 418 -65 520 -55 86 -123 130 -260 169
-41 11 -106 30 -144 41 -91 27 -268 28 -341 2 -98 -35 -172 -98 -231 -200 -38
-65 -49 -167 -28 -257 18 -76 39 -125 54 -125 5 0 11 -8 14 -17 3 -10 18 -30
33 -45 16 -15 44 -42 64 -61 42 -42 125 -96 194 -127 100 -45 249 -37 328 17
49 34 50 69 3 116 -29 30 -44 35 -128 49 -91 15 -137 32 -203 72 -52 32 -68
62 -73 140 l-4 71 49 55 50 54 100 4 101 4 73 -38 c78 -41 108 -68 109 -96 0
-10 6 -32 14 -50 19 -46 36 -122 36 -164 0 -41 -21 -150 -56 -292 -22 -88 -25
-118 -21 -205 6 -129 27 -213 64 -269 17 -23 38 -60 48 -81 18 -38 228 -246
275 -272 14 -8 49 -25 77 -39 60 -28 110 -73 97 -86 -13 -13 -152 -40 -204
-40 -25 0 -61 -5 -80 -10 -57 -16 -307 -27 -398 -19 -99 10 -204 40 -293 85
-53 26 -69 40 -78 65 -27 78 6 175 65 192 56 16 130 -14 204 -82 36 -33 86
-72 111 -86 l47 -25 45 20 c38 17 48 28 63 65 16 43 16 47 -6 114 -53 165
-185 258 -398 282 -156 17 -281 -35 -368 -153 -24 -33 -51 -83 -59 -111 -41
-139 13 -329 130 -456 81 -87 143 -124 270 -162 115 -34 518 -51 582 -24 19 8
62 15 93 15 57 0 251 37 318 61 18 6 36 8 39 5 11 -10 -18 -30 -77 -55 -30
-13 -82 -36 -115 -51 -33 -15 -85 -37 -115 -48 -144 -52 -206 -77 -220 -88 -8
-7 -39 -21 -67 -32 -90 -34 -222 -145 -339 -285 -86 -103 -113 -152 -164 -302
-68 -201 -61 -364 21 -507 64 -110 154 -165 317 -193 104 -18 156 -14 242 18
104 38 214 129 283 233 41 62 97 229 97 292 0 117 -70 187 -162 162 -65 -18
-97 -80 -119 -225 -27 -189 -84 -273 -186 -277 -74 -2 -162 68 -206 166 -36
81 -31 245 11 346 39 93 161 227 272 298 30 20 80 52 110 72 30 20 66 41 80
48 14 7 52 28 85 47 53 31 111 60 220 110 17 8 73 30 125 50 88 34 171 67 245
100 88 39 113 45 172 45 58 0 69 -3 106 -32 63 -50 91 -122 91 -233 -1 -99
-23 -166 -71 -217 -14 -15 -31 -35 -37 -46 -48 -81 -77 -107 -176 -157 -64
-32 -105 -31 -155 3 -37 26 -40 31 -43 82 -5 78 55 214 115 263 53 43 31 97
-39 97 -49 0 -166 -68 -214 -124 -46 -53 -84 -135 -91 -196 -8 -68 28 -200 74
-267 78 -116 166 -168 283 -168 65 0 85 5 140 32 197 97 369 333 484 664 23
64 46 116 51 115 6 -1 10 -36 9 -86 -1 -113 -33 -207 -192 -570 -104 -239
-137 -342 -156 -493 -25 -200 16 -333 137 -443 99 -89 186 -122 350 -131 98
-6 122 1 255 64 186 90 313 294 315 508 1 98 -23 165 -87 245 -52 66 -102 93
-210 115 -66 14 -87 14 -130 4 -80 -19 -112 -36 -145 -76 -35 -43 -41 -99 -17
-158 19 -44 42 -55 113 -55 76 0 120 -13 155 -47 26 -25 28 -33 28 -101 0 -87
-15 -118 -88 -183 l-47 -41 -90 4 c-74 4 -100 9 -149 33 -32 16 -65 39 -73 50
-61 87 -63 94 -63 175 0 43 4 82 10 85 5 3 10 18 10 32 0 28 23 75 56 113 38
45 202 359 258 495 46 112 86 276 89 367 1 47 6 77 12 75 12 -4 71 -103 147
-247 152 -288 212 -375 353 -515 131 -130 257 -187 444 -201 71 -5 102 -2 176
16 292 73 495 293 530 574 7 54 -6 183 -24 231 -33 88 -72 147 -151 226 -104
105 -157 129 -295 136 -88 5 -92 4 -166 -32 -122 -59 -221 -151 -242 -223 -26
-93 2 -161 83 -202 78 -40 117 -20 144 74 19 64 85 148 125 157 14 4 45 7 67
8 43 1 49 -3 109 -74 41 -48 72 -183 46 -199 -5 -3 -14 -27 -20 -52 -7 -26
-19 -61 -28 -78 -26 -52 -105 -126 -163 -153 -52 -24 -62 -25 -170 -20 -111 5
-152 16 -220 58 -8 5 -26 15 -40 21 -37 18 -136 124 -185 198 -37 55 -134 247
-181 355 -7 17 -29 65 -48 109 -58 126 -64 120 122 110 343 -17 469 4 652 111
137 80 223 171 375 396 129 189 177 244 266 309 30 22 44 25 125 25 l92 0 36
-38 c31 -34 36 -45 36 -88 0 -61 -34 -133 -85 -177 -20 -18 -40 -32 -46 -32
-5 0 -32 -21 -59 -46 -43 -40 -50 -52 -50 -85 0 -106 167 -118 315 -22 39 25
78 55 88 67 49 59 87 180 87 278 0 59 -28 133 -75 197 -52 71 -70 84 -161 117
-100 36 -207 37 -294 2 -175 -71 -176 -72 -336 -231 -84 -83 -162 -155 -173
-159 -12 -4 -21 -14 -21 -22 0 -9 -13 -25 -30 -38 -16 -12 -30 -25 -30 -29 0
-11 -59 -69 -103 -102 -21 -16 -45 -36 -55 -46 -33 -34 -82 -62 -143 -82 -100
-33 -109 -12 -33 70 51 55 80 98 122 186 74 151 84 242 63 575 -12 183 -12
198 6 245 25 67 88 104 181 104 34 1 72 -5 85 -11 79 -45 147 -153 147 -235 0
-56 -18 -82 -75 -112 -42 -22 -148 -30 -160 -11 -7 12 -85 13 -100 2 -11 -8
-31 -47 -39 -77 -4 -13 6 -41 26 -75 38 -63 99 -100 178 -108 56 -5 146 19
201 54 21 13 42 24 46 24 5 1 23 13 40 29 50 42 84 136 90 248 7 112 -4 158
-58 233 -21 30 -45 67 -51 83 -7 15 -16 27 -20 27 -5 0 -36 20 -71 43 -68 48
-85 55 -167 68 -133 21 -168 22 -246 4 -148 -33 -207 -75 -263 -188 -44 -88
-40 -69 -72 -382 -22 -223 -61 -337 -150 -437 -24 -27 -30 -29 -89 -26 -51 2
-65 7 -74 23 -6 11 -19 32 -28 47 -43 64 3 275 91 427 23 38 41 77 41 87 0 9
10 32 22 52 12 20 22 54 23 81 1 25 5 93 9 151 11 151 -4 245 -55 350 -46 97
-86 150 -173 233 -67 64 -231 177 -257 177 -9 0 -34 7 -55 16 -22 9 -64 20
-94 24 -30 5 -102 15 -160 24 -57 9 -119 13 -136 10 -18 -3 -40 -1 -50 4 -11
5 -26 6 -34 2z m-336 -1205 c65 -19 111 -64 130 -129 12 -40 13 -64 4 -133 -7
-56 -16 -87 -25 -90 -8 -3 -32 11 -56 35 -48 46 -95 72 -131 72 -32 0 -94 -36
-125 -72 -42 -49 -54 -39 -66 59 -10 78 10 159 50 201 70 71 123 85 219 57z
m690 -22 c33 -12 63 -34 94 -68 l45 -50 -6 -108 c-2 -60 -9 -113 -14 -118 -7
-7 -28 7 -62 40 -51 50 -54 51 -111 51 -73 0 -104 -12 -137 -50 -49 -59 -73
-30 -73 90 0 47 6 95 14 115 42 99 139 137 250 98z"/>
</g>
</svg>
